# xmcd
#
# Track frame offsets:
#	150
#	13627
#	25439
#	39288
#	54042
#	66129
#	79398
#	105184
#	119321
#	131744
#	146691
#	164539
#	179495
#	195032
#	210592
#	225157
#	240632
#	248907
#	288436
#	304127
#
# Disc length: 4250
#
# Revision: 1
# Processed by: cddbd v1.5.1PL0 Copyright (c) Steve Scherf et al.
# Submitted via: CDex 1.50beta10
# Normalized: r0:DSETVAR1,TDELIM( - )
#
DISCID=07109814
DTITLE=Various Artist - The golden Age of Ragtime [CD 2)
DYEAR=1998
DGENRE=Jazz
TTITLE0=The New Orleans Feetwarmers - Maple Leaf Rag
TTITLE1=Scott Joplin - Stoptime Rag
TTITLE2=Louis Armstrong - Potato Head Blues
TTITLE3=Fats Waller - Baby Brown
TTITLE4=James P. Johnson - Honeysuckle Rose
TTITLE5=Jelly Roll Morton - Cannon Ball Blues
TTITLE6=Louis Armstrong and Jack Teagarden - 12th Street Rag
TTITLE7=Scott Joplin - Sun Flower Slow Drag
TTITLE8=Louis Armstrong - Yes I'm In The Barrel
TTITLE9=Jelly Roll Morton - Shreveport Stomp
TTITLE10=Scott Joplin - Reflection Rag
TTITLE11=James P. Johnson - Eccentricity
TTITLE12=Jelly Roll Morton - Wolverine Blues
TTITLE13=Louis Armstrong - Savoy Blues
TTITLE14=Jelly Roll Morton - Black Bottom Stomp
TTITLE15=Scot Joplin - Lily Queen
TTITLE16=The Mills Brothers - Tiger Rag
TTITLE17=Louis Armstrong and Jack Teagarden - Bugle Call Rag
TTITLE18=James P. Johnson - The Down Home Blues
TTITLE19=Scott Joplin - Cleopha
EXTD=YEAR: 1998
EXTT0=
EXTT1=
EXTT2=
EXTT3=
EXTT4=
EXTT5=
EXTT6=
EXTT7=
EXTT8=
EXTT9=
EXTT10=
EXTT11=
EXTT12=
EXTT13=
EXTT14=
EXTT15=
EXTT16=
EXTT17=
EXTT18=
EXTT19=
PLAYORDER=
